<?xml version="1.0" encoding="utf-8"?>
<!-- Generator: Adobe Illustrator 26.5.0, SVG Export Plug-In . SVG Version: 6.00 Build 0)  -->
<svg version="1.1" id="Layer_1" xmlns="http://www.w3.org/2000/svg" xmlns:xlink="http://www.w3.org/1999/xlink" x="0px" y="0px"
	 viewBox="0 0 512 512" style="enable-background:new 0 0 512 512;" xml:space="preserve">
<style type="text/css">
	.st0{fill:#57CCFE;}
	.st1{fill:#35D1F8;}
	.st2{fill:#F7FDFE;}
	.st3{fill:#26D2F6;}
	.st4{fill:#03B8EC;}
	.st5{fill:#F6FCFE;}
	.st6{fill:#008ED2;}
	.st7{fill:#02B3F5;}
	.st8{fill:#00A1DB;}
	.st9{fill:#04ADEA;}
	.st10{fill:#05B0ED;}
	.st11{fill:#009FD6;}
	.st12{fill:#F5FDFE;}
	.st13{fill:#03B1EB;}
	.st14{fill:#5DCCFA;}
	.st15{fill:#08B4F5;}
	.st16{fill:#34D0F8;}
	.st17{fill:#009AE3;}
	.st18{fill:#F6FDFE;}
	.st19{fill:#0092D8;}
	.st20{fill:#01A1DB;}
	.st21{fill:#16BFF9;}
	.st22{fill:#058CDB;}
	.st23{fill:#27D2F8;}
	.st24{fill:#0074BE;}
	.st25{fill:#008FD1;}
	.st26{fill:#0096D8;}
	.st27{fill:#B4E1FE;}
	.st28{fill:#019FD7;}
	.st29{fill:#009AE0;}
	.st30{fill:#06BAF9;}
	.st31{fill:#0089CE;}
	.st32{fill:#00A5DE;}
</style>
<path class="st0" d="M0,0h0.31C0.24,0.08,0.08,0.24,0,0.31V0z"/>
<g>
	<path class="st1" d="M0.31,0H512v512H0V0.31C0.08,0.24,0.24,0.08,0.31,0z M226.92,49.87c-16.35,3.25-32.61,7.42-47.95,14.04
		c-8.91,3.41-17.6,7.45-25.79,12.36c-0.98,0.52-1.65,1.4-2.13,2.38c8.12-1.05,16.25-2.03,24.34-3.3
		c17.69-3.22,35.45-6.52,53.46-7.25c3.01,2.14,6.88,3.12,10.52,2.33c4.34-0.95,8.72,0.53,13.08-0.14c4.29-0.63,8.29,1.65,12.56,1.68
		c6.98,0.31,11.86,6.11,18.18,8.32c-23.79,8.31-46.83,19.08-67.79,33.13c-15.3,10.07-30.76,20.2-43.72,33.26
		c-3.32,3.39-7.15,6.36-9.71,10.42c4.2-1.3,8.08-3.41,12.15-5.06l-0.13,0.75c6.42-1.39,12.53-4.06,19.1-4.82
		c5.31-0.61,10.34-2.52,15.57-3.55c-0.24,4.92,4.82,6.65,8.58,8.08c-2.49,5.93-0.87,13.14,3.5,17.77c5.39,4.77,13.35,5.3,20.05,3.45
		c3.87,0.14,7.74,0.18,11.6,0.59c-7.39,4.67-15.72,7.95-22.33,13.81c-2.53,2.32-5.27,5.16-5.09,8.87
		c-4.57,4.11-7.94,9.35-12.22,13.74c-6.65,6.7-12.99,13.73-20.31,19.71c-2.89,1.96-2.8,6.17-0.19,8.32c6.03,1,12-1,17.68-2.79
		c2.95-1.12,6.12-2.03,8.59-4.07c0.65,2.1,2.49,3.96,1.69,6.3c-4.18,0.19-8.38,0.67-12.45,1.65c-3.66,0.98-4.63,5.27-7.48,7.37
		c-3.14,2.29-6.58,4.15-9.81,6.32c-6.9,4.56-15,6.76-22.15,10.86c-0.04,0.57-0.13,1.71-0.18,2.27c3.42,2.02,7.54,1.52,11.25,0.79
		c8.09-1.6,16.39-1.55,24.59-1.1c7.11,0.64,14.28,0.81,21.27,2.34c10.53,1.82,20.33,6.22,30.39,9.65c5.08,1.73,9.97,4.4,13.65,8.37
		c3.18,3.88,3.81,9.83,8.39,12.53c3.91,1.1,6.92-2.74,10.2-4.24c2.57,3.79,2.98,9.26,7.48,11.54c4.87,1,10.18,0.39,14.65,2.96
		c-1.66,1.56-3.37,3.07-4.84,4.81c-2.21,5.24,1.83,11.82,7.26,12.67c-0.11,1.19-0.24,2.38-0.38,3.57c-3.25,1.27-5.89,3.87-9.01,5.49
		c-18.1,11.95-39.41,18.73-61.03,19.97c-11.68,0.2-23.45,0.34-34.94-2.12c-23.63-5.07-46.39-15.38-64.82-31.17
		c-11.63-9.05-20.59-20.94-29.29-32.7c-10.55-14.41-18.2-30.83-22.9-48.03c-2.83-11.28-4.83-22.74-6.6-34.22
		c-0.29-5.44-1.07-10.83-1.84-16.22c-0.52-7.1-1.08-14.22-1.87-21.29l-0.84-0.39c0.98-10.68,3.52-21.13,5.01-31.73
		c-0.39,0.25-1.17,0.76-1.56,1.02c-0.41,0.11-1.21,0.33-1.61,0.43c-11.87,14.44-21.69,30.54-29.65,47.44
		c-6.5,15.25-11.29,31.29-13.61,47.73c-0.07,1.28-0.56,2.65-0.03,3.89c-2.03,11.34-1.38,22.91-1.42,34.36
		c1.69,28.67,8.86,57.19,22.22,82.68c4.59,9.75,9.86,19.2,15.91,28.12c2.43,3.55,4.41,7.5,7.57,10.49c1.03,1.1,2.69,0.51,4,0.54
		c1.67-3.59-0.37-7.46,0.79-11.14c0.73-1.54-0.51-2.68-1.52-3.65c0.29-0.55,0.87-1.64,1.17-2.19c3.33,5.78,7.91,10.67,12.19,15.75
		c17.78,19.62,40.02,34.66,63.61,46.42c22.72,11.6,47.5,19.45,72.95,21.84c5.01,0.19,10.02,0.38,15.02,0.85
		c30.45,0.2,61.19-5.22,89.07-17.7c21.24-9.88,40.81-23.14,58.24-38.77c6.06-5.94,12.12-11.89,18-18.01
		c8-9.15,15.43-18.85,21.67-29.31c0.96-1.86,2.68-3.54,2.91-5.66c3.32-3.51,4.57-8.42,6.95-12.56
		c14.03-31.01,20.44-65.55,17.87-99.52c-1.31-13.83-3.08-27.84-7.89-40.94c-0.06-2.44-0.41-4.85-0.59-7.27
		c-0.27-2.44,1.88-4.42,1.79-6.79c-0.71-1.55-1.7-2.99-2.97-4.13c1.29,0.01,2.59-0.01,3.89-0.04c0.77,1.51,1.53,3.11,3,4.07
		c-0.78-9.96-5.23-19.24-10.29-27.72c-3.43-5.7-7.9-11.41-14.46-13.56c-7.09-2.33-14.54-3.3-21.75-5.21
		c-20.37-4.78-39.03-14.54-58.74-21.28c-9.92-3.59-19.7-7.73-29.97-10.22l0.97,0.11l-0.07-0.93c-3.71-2.04-8.35,0.25-11.93-2.19
		c3.38-0.49,6.76-0.97,10.14-1.51c0.31-1.35,0.63-2.7,0.92-4.06c3.23-1.8,7.25,0.2,10.49-1.53c12.67,0.96,25.25,3.22,37.6,6.23
		c4.63,0.87,8.36,4.31,13.08,4.75c-1.4-3.64-4.72-5.92-7.66-8.24c-11.5-8.74-25.4-13.5-39.39-16.45c4.46-1.19,7.34-5.82,6.12-10.36
		c-0.07-2.83-0.97-5.77-3.36-7.5c-7.41-5.64-16.07-9.41-24.92-12.17C289.2,44.44,257.23,43.88,226.92,49.87z M138.29,228.73
		c1.02,3.15,1.27,6.49,2.18,9.67c0.78,2.28,2.96,3.36,4.98,4.32c0.93,1.46-1.26,2.23-2.41,2c-1.3-0.35-2.55-0.88-3.81-1.34
		c-3.51,1.96-7.56-0.08-10.72-1.83c-2.1-0.94-4.31-3.28-6.72-1.85c-4.37,1.36-7.19,5.3-8.72,9.41c0.17,2.77,2.24,5.66,4.87,6.62
		c2.89-0.84,5.69-2.09,8.74-2.27c0.26,1.09,0.52,2.18,0.77,3.27c3.43,1.16,5.77-3.55,4.29-6.35c-2.77-1.01-5.62-1.78-8.4-2.74
		c-0.04-1.88,0.34-4.61,2.64-4.86c0.81,1.23,1.55,2.5,2.24,3.8c2.42-1.54,5.63-1.99,7.33,0.85c0.16,2.51-1.07,6.12,1.51,7.68
		c3.22,0.32,4.92-3.31,3.56-5.98c2.71-0.52,5.45-0.91,8.21-0.97c0.63,3.27-2.97,4.99-4.58,7.36c1.42,0.37,2.85,0.65,4.3,0.87
		c1.61-2.66,3.62-5.04,5.35-7.61c2.83-5.47,1.9-12.81-2.55-17.17C147.23,229.96,142.76,228.78,138.29,228.73z"/>
</g>
<path class="st2" d="M226.92,49.87c30.31-5.99,62.28-5.43,91.75,4.39c8.85,2.76,17.51,6.53,24.92,12.17
	c2.39,1.73,3.29,4.67,3.36,7.5c-21.56,2.96-43.23-1.17-64.51-4.44c-17.75-2.4-35.74-2.01-53.59-1.39
	c-18.01,0.73-35.77,4.03-53.46,7.25c-8.09,1.27-16.22,2.25-24.34,3.3c0.48-0.98,1.15-1.86,2.13-2.38
	c8.19-4.91,16.88-8.95,25.79-12.36C194.31,57.29,210.57,53.12,226.92,49.87z"/>
<path class="st3" d="M228.85,68.1c17.85-0.62,35.84-1.01,53.59,1.39c21.28,3.27,42.95,7.4,64.51,4.44
	c1.22,4.54-1.66,9.17-6.12,10.36c-14.7-1.38-30.65-1.4-43.65,6.56c-0.4-2.93-0.86-5.85-1.31-8.77c2.06-0.88,2.43-2.94,2.24-4.96
	c-1.13-0.68-2.44-1.02-3.72-0.62c-3.86,0.87-7.47,2.54-11.2,3.79c-6.32-2.21-11.2-8.01-18.18-8.32c-4.27-0.03-8.27-2.31-12.56-1.68
	c-4.36,0.67-8.74-0.81-13.08,0.14C235.73,71.22,231.86,70.24,228.85,68.1z"/>
<path class="st2" d="M294.39,76.5c1.28-0.4,2.59-0.06,3.72,0.62c0.19,2.02-0.18,4.08-2.24,4.96c-6.28,1-11.54,4.72-16.88,7.9
	c-4.09,2.53-8.32,4.91-12.01,8.01c-3.65,3.08-5.69,7.56-9.09,10.87c-2.53,2.47-5.48,4.47-8,6.95c-10.7,6.23-23.29,9.1-32.79,17.32
	c-5.05,3.92-11.48,5.21-17.25,7.71c-8.77,3.28-17.31,7.11-25.73,11.2c-4.07,1.65-7.95,3.76-12.15,5.06
	c2.56-4.06,6.39-7.03,9.71-10.42c12.96-13.06,28.42-23.19,43.72-33.26c20.96-14.05,44-24.82,67.79-33.13
	C286.92,79.04,290.53,77.37,294.39,76.5z"/>
<path class="st4" d="M278.99,89.98c5.34-3.18,10.6-6.9,16.88-7.9c0.45,2.92,0.91,5.84,1.31,8.77c-5.02,3.13-10.73,4.81-16.02,7.38
	c-7.32,3.52-15.1,6.33-21.56,11.38c-3.19,2.49-6.34,5.06-9.81,7.18l0.1-0.98c2.52-2.48,5.47-4.48,8-6.95
	c3.4-3.31,5.44-7.79,9.09-10.87C270.67,94.89,274.9,92.51,278.99,89.98z"/>
<path class="st5" d="M297.18,90.85c13-7.96,28.95-7.94,43.65-6.56c13.99,2.95,27.89,7.71,39.39,16.45c2.94,2.32,6.26,4.6,7.66,8.24
	c-4.72-0.44-8.45-3.88-13.08-4.75c-12.35-3.01-24.93-5.27-37.6-6.23c-11.98-1.47-23.93,1.89-34.5,7.39
	c-2.61,1.07-5.01,2.61-6.93,4.69c5.81-0.43,11.39-2.43,17.22-2.76c4.58-0.3,9.15,0.19,13.69,0.79c10.27,2.49,20.05,6.63,29.97,10.22
	c19.71,6.74,38.37,16.5,58.74,21.28c7.21,1.91,14.66,2.88,21.75,5.21c6.56,2.15,11.03,7.86,14.46,13.56
	c5.06,8.48,9.51,17.76,10.29,27.72c-1.47-0.96-2.23-2.56-3-4.07c-4.41-8.89-14.32-13.04-23.27-15.85
	c-5.03-1.76-10.04-3.56-14.97-5.58c-27.35-12.56-54.77-25-82.62-36.4c5.53,3.82,11.95,6.25,17.05,10.71
	c13.06,11.59,23.17,26.5,29.05,42.95c2.05,5.23,3.02,10.78,4.7,16.13c0.62,9.12,1.86,18.31,0.62,27.44
	c-1.7,13.51-6.17,27.27-15.62,37.39c-3.64,4.07-8.55,6.75-12.08,10.92c7.73-4.69,14.49-10.79,21.31-16.69
	c1.93-1.79,4.49-2.52,7.01-3.02c2.53,3.99,3.68,8.78,2.32,13.41c-2.28,9.86-9.2,17.8-16.29,24.67
	c-5.76,5.85-12.73,10.46-20.25,13.73c-5.56,2.43-11.69,2.8-17.65,3.35c-10.3-0.15-20.36-2.57-30.29-5.07
	c-6.37-1.54-12.46-4.01-18.49-6.53c-5.63-2.16-7.41-8.52-9.3-13.64c-1.07-8.88-4.9-17.01-7.59-25.43c-0.94-1.77,1.23-2.67,2.23-3.73
	c0.25-1.21,0.48-2.42,0.7-3.63c12.99,3.28,23.01,14.44,26.39,27.22c-0.07,4.51-0.96,9.77-5.05,12.42c-2.2,1.03-4.76,0.96-6.95,2.05
	c6.77,0.43,13.62,0.57,20.34-0.48c1.89-0.21,3.79-0.34,5.69-0.52c11.21-1.18,21.99-4.97,32.08-9.89c4.59-2.34,9.46-4.41,13.2-8.07
	c-4.89,2.04-9.26,5.1-14.05,7.34c-9.15,4.39-18.86,8.1-29.07,8.8c2.58-7.12,9.08-11.5,13.38-17.45c1.17-1.37,2.22-2.83,3.16-4.36
	c4.42-6.91,8.91-13.92,11.43-21.78c4.07-7.4,6.1-15.75,7.39-24.03c0.84-10.2,1.09-20.63-1.07-30.69c-2.1-13.62-7.05-28-18.49-36.57
	c-11.76-8.74-26.14-13.6-40.58-15.47c-11.26-1.86-22.8-1.13-34.03,0.59c-5.81,1.01-11.67,2.27-17,4.86
	c-2.52,1.17-3.48,4.03-5.53,5.74c-1.38,0.29-2.75-0.17-4.09-0.43c-1.55-4.15,0.31-8.41,1.62-12.35c4.06-6.73,9.82-12.05,15.56-17.3
	c3.47-2.12,6.62-4.69,9.81-7.18c6.46-5.05,14.24-7.86,21.56-11.38C286.45,95.66,292.16,93.98,297.18,90.85z"/>
<path class="st6" d="M302.7,105.39c10.57-5.5,22.52-8.86,34.5-7.39c-3.24,1.73-7.26-0.27-10.49,1.53c-0.29,1.36-0.61,2.71-0.92,4.06
	c-3.38,0.54-6.76,1.02-10.14,1.51C311.32,105.15,307,106.31,302.7,105.39z"/>
<path class="st7" d="M295.77,110.08c1.92-2.08,4.32-3.62,6.93-4.69c4.3,0.92,8.62-0.24,12.95-0.29c3.58,2.44,8.22,0.15,11.93,2.19
	l0.07,0.93l-0.97-0.11c-4.54-0.6-9.11-1.09-13.69-0.79C307.16,107.65,301.58,109.65,295.77,110.08z"/>
<path class="st8" d="M217.1,133.13c9.5-8.22,22.09-11.09,32.79-17.32l-0.1,0.98c-5.74,5.25-11.5,10.57-15.56,17.3
	c-5.67-0.03-9.37,4.8-11.81,9.32c-1.64,3.08-3.35,6.12-5.18,9.09c-3.76-1.43-8.82-3.16-8.58-8.08c-5.23,1.03-10.26,2.94-15.57,3.55
	c-6.57,0.76-12.68,3.43-19.1,4.82l0.13-0.75c8.42-4.09,16.96-7.92,25.73-11.2C205.62,138.34,212.05,137.05,217.1,133.13z"/>
<path class="st9" d="M338.03,124.2c27.85,11.4,55.27,23.84,82.62,36.4c-0.26,2.75,3.09,3.57,4.81,5.02
	c9.22,5.13,15.64,13.69,22.66,21.3c3.57,3.97,6.12,8.68,8.65,13.34c4.81,13.1,6.58,27.11,7.89,40.94
	c2.57,33.97-3.84,68.51-17.87,99.52c-2.38,4.14-3.63,9.05-6.95,12.56c-0.68-3.67-0.93-7.46-2.1-11.01
	c-1.31-2.85-4.67-3.57-7.22-4.86c0.46-7.32,3.41-14.24,4.23-21.52c0.55-5.86,1.63-11.75,0.91-17.64c-0.78-6.5-0.6-13.14-2.43-19.48
	c-1.23-5.33-3.86-10.15-5.98-15.15c-0.53-1.26-0.98-2.63-2.09-3.5c-2.27,1.73-4.21,3.84-5.87,6.16
	c-12.39,17.31-23.09,35.74-33.82,54.1c-9.43,16.08-19.06,32.46-32.88,45.23c-5,4.57-10.32,8.86-16.19,12.26
	c-2.04-0.62-4.26-0.89-6.08,0.47c-9.54,5.94-19.3,12.04-30.42,14.5c-5.83,1.15-11.57,4.08-17.64,2.94
	c-2.19-3.89,1.46-7.95,1.08-12.09c0.2-1.65,0.45-3.29,0.66-4.93c-1.96,0.1-3.81,0.79-5.48,1.8c-16.79,9.87-36.11,14.88-55.44,16.29
	c-27.05,1.29-55.09-1.93-79.42-14.51c-15.23-7.45-28.91-18.33-38.75-32.2c-15.42-20.82-23.36-46.13-27.64-71.41
	c-5.95-36.03-3.9-72.9,1.64-108.85l0.84,0.39c0.79,7.07,1.35,14.19,1.87,21.29c0.77,5.39,1.55,10.78,1.84,16.22
	c1.77,11.48,3.77,22.94,6.6,34.22c4.7,17.2,12.35,33.62,22.9,48.03c8.7,11.76,17.66,23.65,29.29,32.7
	c18.43,15.79,41.19,26.1,64.82,31.17c11.49,2.46,23.26,2.32,34.94,2.12c21.62-1.24,42.93-8.02,61.03-19.97
	c3.12-1.62,5.76-4.22,9.01-5.49c7.31-0.41,13.9-3.96,20.34-7.13c1.86-1.15,4.7-1.95,4.75-4.57c-5.55,0.25-10.79,2.3-16.27,2.92
	c-2.77,0.38-5.64,0.37-8.27,1.39c-0.04,1.27-0.09,2.54-0.17,3.82c-5.43-0.85-9.47-7.43-7.26-12.67c1.47-1.74,3.18-3.25,4.84-4.81
	c5.57,3.03,12.02,0.77,17.96,0.47c4-0.02,7.2-2.48,10.23-4.79c5.96-0.55,12.09-0.92,17.65-3.35c7.52-3.27,14.49-7.88,20.25-13.73
	c7.09-6.87,14.01-14.81,16.29-24.67c1.36-4.63,0.21-9.42-2.32-13.41c2.75-5.93,4.1-12.48,4.01-19.01
	c-0.22-10.58-1.76-21.07-3.32-31.52c-0.27-1.96-1.13-3.74-1.93-5.51c-1.68-5.35-2.65-10.9-4.7-16.13
	c-5.88-16.45-15.99-31.36-29.05-42.95C349.98,130.45,343.56,128.02,338.03,124.2z"/>
<path class="st10" d="M222.42,143.41c2.44-4.52,6.14-9.35,11.81-9.32c-1.31,3.94-3.17,8.2-1.62,12.35c1.34,0.26,2.71,0.72,4.09,0.43
	c2.05-1.71,3.01-4.57,5.53-5.74c5.33-2.59,11.19-3.85,17-4.86c11.23-1.72,22.77-2.45,34.03-0.59c-8.26,1.14-17,1.2-24.63,4.95
	c-6.07,2.86-6.03,11.01-11.44,14.56c-3.75,2.22-9.09,1.31-11.96,5.04c-2.94,3.87-3.46,8.88-4.44,13.49
	c-6.7,1.85-14.66,1.32-20.05-3.45c-4.37-4.63-5.99-11.84-3.5-17.77C219.07,149.53,220.78,146.49,222.42,143.41z"/>
<path class="st11" d="M268.63,140.63c7.63-3.75,16.37-3.81,24.63-4.95c14.44,1.87,28.82,6.73,40.58,15.47
	c11.44,8.57,16.39,22.95,18.49,36.57c-1.1-0.84-2.2-1.68-3.3-2.51c-0.34,7.95,1.36,15.85,0.68,23.79
	c-0.81,8.82-1.15,17.75-3.43,26.36c-0.71,2.31-0.7,4.72-0.27,7.08c-2.52,7.86-7.01,14.87-11.43,21.78
	c2.56-11.7,2.16-23.95-0.17-35.66c-3.22-15.05-14.33-26.8-26.36-35.65c-7.75-5.88-17.04-9.31-26.42-11.57
	c-2.38-0.54-4.86-0.89-7.26-0.3c-0.6,1.38-1.22,2.75-1.76,4.15c-1.17-6.34-0.37-13.06-2.95-19.1c-6.58,0.62-10.51,7.66-17.27,8.22
	c-3.86-0.41-7.73-0.45-11.6-0.59c0.98-4.61,1.5-9.62,4.44-13.49c2.87-3.73,8.21-2.82,11.96-5.04
	C262.6,151.64,262.56,143.49,268.63,140.63z"/>
<path class="st12" d="M82.36,139.17c0.39-0.26,1.17-0.77,1.56-1.02c-1.49,10.6-4.03,21.05-5.01,31.73
	c-5.54,35.95-7.59,72.82-1.64,108.85c4.28,25.28,12.22,50.59,27.64,71.41c9.84,13.87,23.52,24.75,38.75,32.2
	c24.33,12.58,52.37,15.8,79.42,14.51c19.33-1.41,38.65-6.42,55.44-16.29c1.67-1.01,3.52-1.7,5.48-1.8
	c-0.21,1.64-0.46,3.28-0.66,4.93c-5.01,4.54-8.94,10.2-14.51,14.13c-7.45,5.16-16.06,8.22-24.14,12.2c2.93,0.03,5.86-0.1,8.75-0.57
	c19.69-3.01,39.2-8.15,57.12-16.98c8.82-4.48,17.63-9.04,25.84-14.6c5.87-3.4,11.19-7.69,16.19-12.26
	c13.82-12.77,23.45-29.15,32.88-45.23c10.73-18.36,21.43-36.79,33.82-54.1c1.66-2.32,3.6-4.43,5.87-6.16
	c1.11,0.87,1.56,2.24,2.09,3.5c-3.66,14.43-5.52,29.3-10.17,43.48c-6.06,19.91-13.59,39.55-24.78,57.19
	c-9.47,15.37-22.07,28.83-36.88,39.16c-28.04,20.56-61.67,33.53-96.34,36.48c-10.11,0.32-20.26,0.49-30.33-0.55
	c-23.05-2.81-45.86-8.98-66.66-19.43c-5.11-3.98-10.69-7.29-15.84-11.2c-13.88-9.75-26.65-21.58-35.69-36.02
	c-0.07-0.12-0.2-0.35-0.27-0.46c0.14-1.5-0.58-2.99-2.11-3.39c0.28-1.42-0.56-2.67-1.92-3.06c-1.02-1.91-2.28-3.68-3.95-5.07
	c0.35-1.58-1.08-2.73-2.56-2.58c-3.54-3.05-5.12-7.5-7.54-11.35c-1.2-2.49-5.07-2.29-6.27,0.1c-1.71,3.42-1.66,7.4-1.2,11.11
	c0.54,6.61,0.7,13.24,1.44,19.84c-0.3,0.55-0.88,1.64-1.17,2.19c-3.38-3.5-5.72-7.82-8-12.07c-15.16-29.21-24.63-61.54-26.47-94.45
	c-0.69-16.5-0.39-33.06,1.85-49.44c3.09-20.68,8.98-40.96,17.73-59.96C73.78,155.61,78.53,147.62,82.36,139.17z"/>
<path class="st13" d="M80.75,139.6c0.4-0.1,1.2-0.32,1.61-0.43c-3.83,8.45-8.58,16.44-12.24,24.97c-8.75,19-14.64,39.28-17.73,59.96
	c-0.19-0.5-0.57-1.5-0.77-2c-2.57,5.52-4.56,11.36-5.26,17.42c-1.22,2.09-3.77,2.92-5.88,3.87c-1.06-1.54-2.12-3.09-3.02-4.73
	c-0.53-1.24-0.04-2.61,0.03-3.89c2.32-16.44,7.11-32.48,13.61-47.73C59.06,170.14,68.88,154.04,80.75,139.6z"/>
<path class="st14" d="M425.46,165.62c-1.72-1.45-5.07-2.27-4.81-5.02c4.93,2.02,9.94,3.82,14.97,5.58c0.57,1.64,0.93,3.61,2.66,4.47
	c5.8,3.47,11.36,7.3,16.72,11.42c1.27,1.14,2.26,2.58,2.97,4.13c0.09,2.37-2.06,4.35-1.79,6.79c0.18,2.42,0.53,4.83,0.59,7.27
	c-2.53-4.66-5.08-9.37-8.65-13.34C441.1,179.31,434.68,170.75,425.46,165.62z"/>
<path class="st15" d="M252.39,174.31c6.76-0.56,10.69-7.6,17.27-8.22c2.58,6.04,1.78,12.76,2.95,19.1
	c-1.19,5.33-5.7,8.97-10.47,11.07c-2.84-1.24-5.71-2.91-8.89-2.86c-2.07-0.04-3.18,1.92-4.54,3.13c-2.43,0.94-4.97,1.57-7.51,2.11
	c-0.52-1.5-1.03-3-1.53-4.5c-5.07-0.38-9.96,1.28-14.7,2.85c-0.18-3.71,2.56-6.55,5.09-8.87C236.67,182.26,245,178.98,252.39,174.31
	z"/>
<path class="st14" d="M435.62,166.18c8.95,2.81,18.86,6.96,23.27,15.85c-1.3,0.03-2.6,0.05-3.89,0.04
	c-5.36-4.12-10.92-7.95-16.72-11.42C436.55,169.79,436.19,167.82,435.62,166.18z"/>
<path class="st16" d="M274.37,181.04c2.4-0.59,4.88-0.24,7.26,0.3c9.38,2.26,18.67,5.69,26.42,11.57
	c12.03,8.85,23.14,20.6,26.36,35.65c2.33,11.71,2.73,23.96,0.17,35.66c-0.94,1.53-1.99,2.99-3.16,4.36
	c-3.72,1.27-6.43,4.31-9.98,5.9c-2.59,1.34-5.55,1.6-8.4,1.75c-3.8-0.09-7.6-0.58-11.19-1.85c-3.38-12.78-13.4-23.94-26.39-27.22
	c-0.22,1.21-0.45,2.42-0.7,3.63l-0.69,0.14c0.56-4.58-2.47-8.5-2.41-12.99c3.5-0.09,6.98-0.45,10.41-1.16
	c-0.36-0.9-0.95-1.59-1.76-2.08c-5.42-3.17-11.67-4.87-16.67-8.78c1.27-2.71,3.81-4.42,6.19-6.09c8.3-5.64,18.27-8.6,26.05-15.01
	c-0.01-0.65-0.03-1.96-0.04-2.62c-11.2-2-22.28,1.63-33.17,3.78c-0.79-3.18-0.89-6.47-0.53-9.72c4.77-2.1,9.28-5.74,10.47-11.07
	C273.15,183.79,273.77,182.42,274.37,181.04z"/>
<path class="st11" d="M348.71,184.67c1.1,0.83,2.2,1.67,3.3,2.51c2.16,10.06,1.91,20.49,1.07,30.69
	c-1.29,8.28-3.32,16.63-7.39,24.03c-0.43-2.36-0.44-4.77,0.27-7.08c2.28-8.61,2.62-17.54,3.43-26.36
	C350.07,200.52,348.37,192.62,348.71,184.67z"/>
<path class="st17" d="M253.25,193.4c3.18-0.05,6.05,1.62,8.89,2.86c-0.36,3.25-0.26,6.54,0.53,9.72c-4.54-0.26-9.05-0.93-13.59-1.11
	c1.59-2,4.35-3.7,4.06-6.59c-1.48-0.6-2.95-1.19-4.43-1.75C250.07,195.32,251.18,193.36,253.25,193.4z"/>
<path class="st18" d="M224.97,196.99c4.74-1.57,9.63-3.23,14.7-2.85c0.5,1.5,1.01,3,1.53,4.5c2.54-0.54,5.08-1.17,7.51-2.11
	c1.48,0.56,2.95,1.15,4.43,1.75c0.29,2.89-2.47,4.59-4.06,6.59c4.54,0.18,9.05,0.85,13.59,1.11c10.89-2.15,21.97-5.78,33.17-3.78
	c0.01,0.66,0.03,1.97,0.04,2.62c-7.78,6.41-17.75,9.37-26.05,15.01c-2.38,1.67-4.92,3.38-6.19,6.09c5,3.91,11.25,5.61,16.67,8.78
	c0.81,0.49,1.4,1.18,1.76,2.08c-3.43,0.71-6.91,1.07-10.41,1.16c-7.44-1.45-15.05-1.66-22.59-0.91c1.21-3.22,1.85-7.1,0.15-10.25
	c-2.49-3.4-7.06-4.52-11.07-4.51c-2.11-0.13-3.08,2.05-4.45,3.25c-2.83,1.39-5.9,2.15-8.95,2.87c-2.49,0.29-4.47,1.84-6.23,3.51
	c-2.47,2.04-5.64,2.95-8.59,4.07c-5.68,1.79-11.65,3.79-17.68,2.79c-2.61-2.15-2.7-6.36,0.19-8.32
	c7.32-5.98,13.66-13.01,20.31-19.71C217.03,206.34,220.4,201.1,224.97,196.99z"/>
<path class="st19" d="M388.83,193.99c0.8,1.77,1.66,3.55,1.93,5.51c1.56,10.45,3.1,20.94,3.32,31.52
	c0.09,6.53-1.26,13.08-4.01,19.01c-2.52,0.5-5.08,1.23-7.01,3.02c-6.82,5.9-13.58,12-21.31,16.69c3.53-4.17,8.44-6.85,12.08-10.92
	c9.45-10.12,13.92-23.88,15.62-37.39C390.69,212.3,389.45,203.11,388.83,193.99z"/>
<path class="st20" d="M46.36,239.52c0.7-6.06,2.69-11.9,5.26-17.42c0.2,0.5,0.58,1.5,0.77,2c-2.24,16.38-2.54,32.94-1.85,49.44
	c1.84,32.91,11.31,65.24,26.47,94.45c2.28,4.25,4.62,8.57,8,12.07c1.01,0.97,2.25,2.11,1.52,3.65c-1.16,3.68,0.88,7.55-0.79,11.14
	c-1.31-0.03-2.97,0.56-4-0.54c-3.16-2.99-5.14-6.94-7.57-10.49c-6.05-8.92-11.32-18.37-15.91-28.12
	c-13.36-25.49-20.53-54.01-22.22-82.68c0.04-11.45-0.61-23.02,1.42-34.36c0.9,1.64,1.96,3.19,3.02,4.73
	C42.59,242.44,45.14,241.61,46.36,239.52z"/>
<path class="st21" d="M233.7,225.52c1.37-1.2,2.34-3.38,4.45-3.25c4.01-0.01,8.58,1.11,11.07,4.51c1.7,3.15,1.06,7.03-0.15,10.25
	c-0.62,1.5-1.2,3.02-1.61,4.6c-2.53,1.46-4.95,3.16-7.68,4.24c-2.37,0.55-3.36-2.27-4.82-3.6c0.43-0.18,1.29-0.53,1.72-0.71
	c0.12-1.11,0.22-2.22,0.29-3.33c-4.33-3.01-9.92-2.27-14.89-2.13c0.28,1.67,0.58,3.35,0.91,5.02c-0.77-0.04-2.32-0.12-3.1-0.16
	c0.08-0.69,0.24-2.07,0.32-2.76c0.8-2.34-1.04-4.2-1.69-6.3c1.76-1.67,3.74-3.22,6.23-3.51c4,3.88,10.31,2.25,15.37,2.56
	c0-0.72,0-2.15-0.01-2.86C238.33,226.5,235.92,226.11,233.7,225.52z"/>
<path class="st22" d="M224.75,228.39c3.05-0.72,6.12-1.48,8.95-2.87c2.22,0.59,4.63,0.98,6.41,2.57c0.01,0.71,0.01,2.14,0.01,2.86
	C235.06,230.64,228.75,232.27,224.75,228.39z"/>
<path class="st23" d="M138.29,228.73c4.47,0.05,8.94,1.23,13.06,2.88c4.45,4.36,5.38,11.7,2.55,17.17
	c-1.73,2.57-3.74,4.95-5.35,7.61c-1.45-0.22-2.88-0.5-4.3-0.87c1.61-2.37,5.21-4.09,4.58-7.36c-2.76,0.06-5.5,0.45-8.21,0.97
	c1.36,2.67-0.34,6.3-3.56,5.98c-2.58-1.56-1.35-5.17-1.51-7.68c-1.7-2.84-4.91-2.39-7.33-0.85c-0.69-1.3-1.43-2.57-2.24-3.8
	c-2.3,0.25-2.68,2.98-2.64,4.86c2.78,0.96,5.63,1.73,8.4,2.74c1.48,2.8-0.86,7.51-4.29,6.35c-0.25-1.09-0.51-2.18-0.77-3.27
	c-3.05,0.18-5.85,1.43-8.74,2.27c-2.63-0.96-4.7-3.85-4.87-6.62c1.53-4.11,4.35-8.05,8.72-9.41c2.41-1.43,4.62,0.91,6.72,1.85
	c3.16,1.75,7.21,3.79,10.72,1.83c1.26,0.46,2.51,0.99,3.81,1.34c1.15,0.23,3.34-0.54,2.41-2c-2.02-0.96-4.2-2.04-4.98-4.32
	C139.56,235.22,139.31,231.88,138.29,228.73z"/>
<path class="st24" d="M222.08,236.1c4.97-0.14,10.56-0.88,14.89,2.13c-0.07,1.11-0.17,2.22-0.29,3.33
	c-0.43,0.18-1.29,0.53-1.72,0.71c-3.98-0.49-7.97-0.87-11.97-1.15C222.66,239.45,222.36,237.77,222.08,236.1z"/>
<path class="st25" d="M249.07,237.03c7.54-0.75,15.15-0.54,22.59,0.91c-0.06,4.49,2.97,8.41,2.41,12.99
	c-4.21,0.54-7.89-1.97-11.72-3.25c-5.06-1.78-10.07-3.69-14.89-6.05C247.87,240.05,248.45,238.53,249.07,237.03z"/>
<path class="st26" d="M207.76,239.85c4.07-0.98,8.27-1.46,12.45-1.65c-0.08,0.69-0.24,2.07-0.32,2.76
	c-4.28,0.74-8.68,1.99-11.9,5.07c-7.48,7.42-18.51,9.53-26.31,16.5c20.06-3.35,40.66-1.53,60.53,2.29
	c13.13,3.29,27.74,5.35,37.91,15.13c1.89,5.12,3.67,11.48,9.3,13.64c6.03,2.52,12.12,4.99,18.49,6.53
	c9.93,2.5,19.99,4.92,30.29,5.07c-3.03,2.31-6.23,4.77-10.23,4.79c-5.94,0.3-12.39,2.56-17.96-0.47c-4.47-2.57-9.78-1.96-14.65-2.96
	c-4.5-2.28-4.91-7.75-7.48-11.54c-3.28,1.5-6.29,5.34-10.2,4.24c-4.58-2.7-5.21-8.65-8.39-12.53c-3.68-3.97-8.57-6.64-13.65-8.37
	c-10.06-3.43-19.86-7.83-30.39-9.65c-6.99-1.53-14.16-1.7-21.27-2.34c-8.2-0.45-16.5-0.5-24.59,1.1c-3.71,0.73-7.83,1.23-11.25-0.79
	c0.05-0.56,0.14-1.7,0.18-2.27c7.15-4.1,15.25-6.3,22.15-10.86c3.23-2.17,6.67-4.03,9.81-6.32
	C203.13,245.12,204.1,240.83,207.76,239.85z"/>
<path class="st27" d="M207.99,246.03c3.22-3.08,7.62-4.33,11.9-5.07c0.78,0.04,2.33,0.12,3.1,0.16c4,0.28,7.99,0.66,11.97,1.15
	c1.46,1.33,2.45,4.15,4.82,3.6c2.73-1.08,5.15-2.78,7.68-4.24c4.82,2.36,9.83,4.27,14.89,6.05c3.83,1.28,7.51,3.79,11.72,3.25
	l0.69-0.14c-1,1.06-3.17,1.96-2.23,3.73c2.69,8.42,6.52,16.55,7.59,25.43c-10.17-9.78-24.78-11.84-37.91-15.13
	c-19.87-3.82-40.47-5.64-60.53-2.29C189.48,255.56,200.51,253.45,207.99,246.03z"/>
<path class="st28" d="M427.25,263.62c2.12,5,4.75,9.82,5.98,15.15c1.83,6.34,1.65,12.98,2.43,19.48c0.72,5.89-0.36,11.78-0.91,17.64
	c-0.82,7.28-3.77,14.2-4.23,21.52c2.55,1.29,5.91,2.01,7.22,4.86c1.17,3.55,1.42,7.34,2.1,11.01c-0.23,2.12-1.95,3.8-2.91,5.66
	c-6.24,10.46-13.67,20.16-21.67,29.31c-5.88,6.12-11.94,12.07-18,18.01c-17.43,15.63-37,28.89-58.24,38.77
	c-27.88,12.48-58.62,17.9-89.07,17.7c-5-0.47-10.01-0.66-15.02-0.85c-25.45-2.39-50.23-10.24-72.95-21.84
	c-23.59-11.76-45.83-26.8-63.61-46.42c-4.28-5.08-8.86-9.97-12.19-15.75c-0.74-6.6-0.9-13.23-1.44-19.84
	c5.61,9.5,13.61,17.17,21.5,24.74c16.68,14.99,35.36,27.96,55.85,37.18c20.8,10.45,43.61,16.62,66.66,19.43
	c10.07,1.04,20.22,0.87,30.33,0.55c34.67-2.95,68.3-15.92,96.34-36.48c14.81-10.33,27.41-23.79,36.88-39.16
	c11.19-17.64,18.72-37.28,24.78-57.19C421.73,292.92,423.59,278.05,427.25,263.62z"/>
<path class="st29" d="M321.44,274.48c3.55-1.59,6.26-4.63,9.98-5.9c-4.3,5.95-10.8,10.33-13.38,17.45
	c-0.71,0.62-1.43,1.23-2.16,1.82c-1.9,0.18-3.8,0.31-5.69,0.52c0.26-4.18,1.28-8.26,2.85-12.14
	C315.89,276.08,318.85,275.82,321.44,274.48z"/>
<path class="st3" d="M347.11,277.23c4.79-2.24,9.16-5.3,14.05-7.34c-3.74,3.66-8.61,5.73-13.2,8.07
	c-10.09,4.92-20.87,8.71-32.08,9.89c0.73-0.59,1.45-1.2,2.16-1.82C328.25,285.33,337.96,281.62,347.11,277.23z"/>
<path class="st30" d="M301.85,274.38c3.59,1.27,7.39,1.76,11.19,1.85c-1.57,3.88-2.59,7.96-2.85,12.14
	c-6.72,1.05-13.57,0.91-20.34,0.48c2.19-1.09,4.75-1.02,6.95-2.05C300.89,284.15,301.78,278.89,301.85,274.38z"/>
<path class="st31" d="M320.87,321.78c5.48-0.62,10.72-2.67,16.27-2.92c-0.05,2.62-2.89,3.42-4.75,4.57
	c-6.44,3.17-13.03,6.72-20.34,7.13c0.14-1.19,0.27-2.38,0.38-3.57c0.08-1.28,0.13-2.55,0.17-3.82
	C315.23,322.15,318.1,322.16,320.87,321.78z"/>
<path class="st0" d="M110.56,372.73c9.04,14.44,21.81,26.27,35.69,36.02c5.15,3.91,10.73,7.22,15.84,11.2
	c-20.49-9.22-39.17-22.19-55.85-37.18c-7.89-7.57-15.89-15.24-21.5-24.74c-0.46-3.71-0.51-7.69,1.2-11.11
	c1.2-2.39,5.07-2.59,6.27-0.1"/>
<path class="st18" d="M102.31,360.75c1.67,1.39,2.93,3.16,3.95,5.07C104.49,364.51,103.15,362.77,102.31,360.75z"/>
<path class="st18" d="M110.56,372.73"/>
<path class="st32" d="M330.32,378.34c1.82-1.36,4.04-1.09,6.08-0.47c-8.21,5.56-17.02,10.12-25.84,14.6
	c-17.92,8.83-37.43,13.97-57.12,16.98c-2.89,0.47-5.82,0.6-8.75,0.57c8.08-3.98,16.69-7.04,24.14-12.2
	c5.57-3.93,9.5-9.59,14.51-14.13c0.38,4.14-3.27,8.2-1.08,12.09c6.07,1.14,11.81-1.79,17.64-2.94
	C311.02,390.38,320.78,384.28,330.32,378.34z"/>
</svg>
