<?xml version="1.0" encoding="UTF-8"?>
<svg id="a" data-name="Layer 1" xmlns="http://www.w3.org/2000/svg" viewBox="0 0 512 512">
  <defs>
    <style>
      .b {
        fill: #0092d8;
      }

      .c {
        fill: #009ae3;
      }

      .d {
        fill: #008fd1;
      }

      .e {
        fill: #57ccfe;
      }

      .f {
        fill: #008ed2;
      }

      .g {
        fill: #16bff9;
      }

      .h {
        fill: #0089ce;
      }

      .i {
        fill: #00a1db;
      }

      .j {
        fill: #27d2f8;
      }

      .k {
        fill: #01a1db;
      }

      .l {
        fill: #03b8ec;
      }

      .m {
        fill: #0074be;
      }

      .n {
        fill: #f5fdfe;
      }

      .o {
        fill: #0096d8;
      }

      .p {
        fill: #05b0ed;
      }

      .q {
        fill: #019fd7;
      }

      .r {
        fill: #009fd6;
      }

      .s {
        fill: #00a5de;
      }

      .t {
        fill: #b4e1fe;
      }

      .u {
        fill: #009ae0;
      }

      .v {
        fill: #06baf9;
      }

      .w {
        fill: #f7fdfe;
      }

      .x {
        fill: #f6fcfe;
      }

      .y {
        fill: #03b1eb;
      }

      .z {
        fill: #02b3f5;
      }

      .aa {
        fill: #04adea;
      }

      .ab {
        fill: #058cdb;
      }

      .ac {
        fill: #f6fdfe;
      }

      .ad {
        fill: #08b4f5;
      }

      .ae {
        fill: #26d2f6;
      }
    </style>
  </defs>
  <rect class="j" width="512" height="512"/>
  <path class="w" d="M226.92,49.87c30.31-5.99,62.28-5.43,91.75,4.39,8.85,2.76,17.51,6.53,24.92,12.17,2.39,1.73,3.29,4.67,3.36,7.5-21.56,2.96-43.23-1.17-64.51-4.44-17.75-2.4-35.74-2.01-53.59-1.39-18.01,.73-35.77,4.03-53.46,7.25-8.09,1.27-16.22,2.25-24.34,3.3,.48-.98,1.15-1.86,2.13-2.38,8.19-4.91,16.88-8.95,25.79-12.36,15.34-6.62,31.6-10.79,47.95-14.04Z"/>
  <path class="w" d="M294.39,76.5c1.28-.4,2.59-.06,3.72,.62,.19,2.02-.18,4.08-2.24,4.96-6.28,1-11.54,4.72-16.88,7.9-4.09,2.53-8.32,4.91-12.01,8.01-3.65,3.08-5.69,7.56-9.09,10.87-2.53,2.47-5.48,4.47-8,6.95-10.7,6.23-23.29,9.1-32.79,17.32-5.05,3.92-11.48,5.21-17.25,7.71-8.77,3.28-17.31,7.11-25.73,11.2-4.07,1.65-7.95,3.76-12.15,5.06,2.56-4.06,6.39-7.03,9.71-10.42,12.96-13.06,28.42-23.19,43.72-33.26,20.96-14.05,44-24.82,67.79-33.13,3.73-1.25,7.34-2.92,11.2-3.79Z"/>
  <path class="l" d="M278.99,89.98c5.34-3.18,10.6-6.9,16.88-7.9,.45,2.92,.91,5.84,1.31,8.77-5.02,3.13-10.73,4.81-16.02,7.38-7.32,3.52-15.1,6.33-21.56,11.38-3.19,2.49-6.34,5.06-9.81,7.18l.1-.98c2.52-2.48,5.47-4.48,8-6.95,3.4-3.31,5.44-7.79,9.09-10.87,3.69-3.1,7.92-5.48,12.01-8.01Z"/>
  <path class="x" d="M297.18,90.85c13-7.96,28.95-7.94,43.65-6.56,13.99,2.95,27.89,7.71,39.39,16.45,2.94,2.32,6.26,4.6,7.66,8.24-4.72-.44-8.45-3.88-13.08-4.75-12.35-3.01-24.93-5.27-37.6-6.23-11.98-1.47-23.93,1.89-34.5,7.39-2.61,1.07-5.01,2.61-6.93,4.69,5.81-.43,11.39-2.43,17.22-2.76,4.58-.3,9.15,.19,13.69,.79,10.27,2.49,20.05,6.63,29.97,10.22,19.71,6.74,38.37,16.5,58.74,21.28,7.21,1.91,14.66,2.88,21.75,5.21,6.56,2.15,11.03,7.86,14.46,13.56,5.06,8.48,9.51,17.76,10.29,27.72-1.47-.96-2.23-2.56-3-4.07-4.41-8.89-14.32-13.04-23.27-15.85-5.03-1.76-10.04-3.56-14.97-5.58-27.35-12.56-54.77-25-82.62-36.4,5.53,3.82,11.95,6.25,17.05,10.71,13.06,11.59,23.17,26.5,29.05,42.95,2.05,5.23,3.42,9.88,4.7,16.13,.62,9.12,1.86,18.31,.62,27.44-1.7,13.51-6.17,27.27-15.62,37.39-3.64,4.07-8.55,6.75-12.08,10.92,7.73-4.69,14.49-10.79,21.31-16.69,1.93-1.79,4.49-2.52,7.01-3.02,2.53,3.99,3.68,8.78,2.32,13.41-2.28,9.86-9.2,17.8-16.29,24.67-5.76,5.85-12.73,10.46-20.25,13.73-5.56,2.43-11.69,2.8-17.65,3.35-10.3-.15-20.36-2.57-30.29-5.07-6.37-1.54-12.46-4.01-18.49-6.53-5.63-2.16-7.41-8.52-9.3-13.64-1.07-8.88-4.9-17.01-7.59-25.43-.94-1.77,1.23-2.67,2.23-3.73,.25-1.21-.71-2.91-.49-4.12,12.99,3.28,24.2,14.93,27.58,27.71-.07,4.51-.96,9.77-5.05,12.42-2.2,1.03-4.76,.96-6.95,2.05,6.77,.43,13.62,.57,20.34-.48,1.89-.21,3.79-.34,5.69-.52,11.21-1.18,21.99-4.97,32.08-9.89,4.59-2.34,9.88-4.41,13.62-8.07-4.89,2.04-9.68,5.1-14.47,7.34-9.15,4.39-18.86,8.1-29.07,8.8,2.58-7.12,9.08-11.5,13.38-17.45,1.17-1.37,2.22-2.83,3.16-4.36,4.42-6.91,7.13-12.53,11.43-21.78,4.73-11.41,6.1-15.75,7.39-24.03,.84-10.2,1.09-20.63-1.07-30.69-2.1-13.62-7.05-28-18.49-36.57-11.76-8.74-26.14-13.6-40.58-15.47-11.26-1.86-22.8-1.13-34.03,.59-5.81,1.01-11.67,2.27-17,4.86-2.52,1.17-3.48,4.03-5.53,5.74-1.38,.29-2.75-.17-4.09-.43-1.55-4.15,.31-8.41,1.62-12.35,4.06-6.73,9.82-12.05,15.56-17.3,3.47-2.12,6.62-4.69,9.81-7.18,6.46-5.05,14.24-7.86,21.56-11.38,5.29-2.57,11-4.25,16.02-7.38Z"/>
  <path class="f" d="M302.7,105.39c10.57-5.5,22.93-9.16,35.45-7.32-3.24,1.73-11.58,3.78-13.08,4.65-3.26,1.59-6.04,1.88-9.42,2.37-4.33,.05-8.65,1.21-12.95,.29Z"/>
  <path class="z" d="M295.77,110.08c1.92-2.08,4.32-3.62,6.93-4.69,4.3,.92,8.62-.24,12.95-.29,3.58,2.44,8.22,.15,11.93,2.19l3.14,1.89-4.04-1.07c-4.54-.6-9.11-1.09-13.69-.79-5.83,.33-11.41,2.33-17.22,2.76Z"/>
  <path class="i" d="M217.1,133.13c9.5-8.22,22.09-11.09,32.79-17.32l-.1,.98c-5.74,5.25-11.5,10.57-15.56,17.3-5.67-.03-9.37,4.8-11.81,9.32-1.64,3.08-3.35,6.12-5.18,9.09-3.76-1.43-8.82-3.16-8.58-8.08-5.23,1.03-10.26,2.94-15.57,3.55-6.57,.76-12.68,3.43-19.1,4.82l.13-.75c8.42-4.09,16.96-7.92,25.73-11.2,5.77-2.5,12.2-3.79,17.25-7.71Z"/>
  <path class="aa" d="M338.03,124.2c27.85,11.4,55.27,23.84,82.62,36.4,3.41,3.37,3.43,3.24,5.17,4.86,8.56,8.09,15.28,13.85,22.3,21.46,3.57,3.97,6.12,8.68,8.65,13.34,4.81,13.1,6.58,27.11,7.89,40.94,2.57,33.97-3.84,68.51-17.87,99.52-2.38,4.14-4.59,9.71-7.13,13.43-.68-3.67-157.5,106.51-176.83,107.92-27.05,1.29-105.06-26.72-129.39-39.3-17.35-18.43-18.69-58.76-28.53-72.63-15.42-20.82-23.36-46.13-27.64-71.41-5.95-36.03-3.82-73.94,1.8-109.51,0,0,2.03,15.24,2.55,22.34,.77,5.39,1.55,10.78,1.84,16.22,1.77,11.48,3.77,22.94,6.6,34.22,4.7,17.2,12.35,33.62,22.9,48.03,8.7,11.76,17.66,23.65,29.29,32.7,18.43,15.79,41.19,26.1,64.82,31.17,11.49,2.46,23.26,2.32,34.94,2.12,21.62-1.24,42.93-8.02,61.03-19.97,3.12-1.62,5.76-4.22,9.01-5.49,0,0,.46-4.85,.38-3.57-5.43-.85-9.47-7.43-7.26-12.67,1.47-1.74,3.34-3.91,5-5.47,5.57,3.03,11.69,.79,17.63,.49,4-.02,7.37-1.84,10.4-4.15,5.96-.55,12.25-1.58,17.81-4.01,7.52-3.27,14.07-7.46,19.83-13.31,7.09-6.87,14.27-14.56,16.55-24.42,1.36-4.63,.21-9.42-2.32-13.41,2.75-5.93,4.1-12.48,4.01-19.01-.22-10.58-4.56-33.46-5.25-37.03-1.28-5.93-2.65-10.9-4.7-16.13-5.88-16.45-15.99-31.36-29.05-42.95-5.1-4.46-11.52-6.89-17.05-10.71Z"/>
  <path class="p" d="M222.42,143.41c2.44-4.52,6.14-9.35,11.81-9.32-1.31,3.94-3.17,8.2-1.62,12.35,1.34,.26,2.71,.72,4.09,.43,2.05-1.71,3.01-4.57,5.53-5.74,5.33-2.59,11.19-3.85,17-4.86,11.23-1.72,22.77-2.45,34.03-.59-8.26,1.14-17,1.2-24.63,4.95-6.07,2.86-6.03,11.01-11.44,14.56-3.75,2.22-9.09,1.31-11.96,5.04-2.94,3.87-3.46,8.88-4.44,13.49-6.7,1.85-14.66,1.32-20.05-3.45-4.37-4.63-5.99-11.84-3.5-17.77,1.83-2.97,3.54-6.01,5.18-9.09Z"/>
  <path class="r" d="M268.63,140.63c7.63-3.75,16.37-3.81,24.63-4.95,14.44,1.87,28.82,6.73,40.58,15.47,11.44,8.57,16.39,22.95,18.49,36.57,3.14,32.01,1.33,37.8-6.32,54.72-5.42,12-7.01,14.87-11.43,21.78,2.56-11.7,2.16-23.95-.17-35.66-3.22-15.05-14.33-26.8-26.36-35.65-7.75-5.88-17.04-9.31-26.42-11.57-2.38-.54-4.86-.89-7.26-.3-.6,1.38-1.22,2.75-1.76,4.15-1.17-6.34-.37-13.06-2.95-19.1-6.58,.62-10.51,7.66-17.27,8.22-3.86-.41-7.73-.45-11.6-.59,.98-4.61,1.5-9.62,4.44-13.49,2.87-3.73,8.21-2.82,11.96-5.04,5.41-3.55,5.37-11.7,11.44-14.56Z"/>
  <path class="n" d="M82.36,139.17c.39-.26,1.17-.77,1.56-1.02-1.49,10.6-4.03,21.05-5.01,31.73-5.62,34.15-7.59,72.82-1.64,108.85,4.28,25.28,12.22,50.59,27.64,71.41,9.84,13.87,23.52,24.75,38.75,32.2,24.33,12.58,52.37,15.8,79.42,14.51,19.33-1.41,38.65-6.42,55.44-16.29,1.67-1.01,4.62-2.85,7.73-4.45-2.04,5.07-2.06,5.53-2.91,7.58-5.01,4.54-8.94,10.2-14.51,14.13-7.45,5.16-16.06,8.22-24.14,12.2,2.93,.03,5.86-.1,8.75-.57,19.69-3.01,39.2-8.15,57.12-16.98,8.82-4.48,17.63-9.04,25.84-14.6,5.87-3.4,11.19-7.69,16.19-12.26,13.82-12.77,23.45-29.15,32.88-45.23,10.73-18.36,21.43-36.79,33.82-54.1,1.66-2.32,3.6-4.43,5.87-6.16,1.11,.87,1.56,2.24,2.09,3.5-3.66,14.43-5.52,29.3-10.17,43.48-6.06,19.91-13.59,39.55-24.78,57.19-9.47,15.37-22.07,28.83-36.88,39.16-28.04,20.56-61.67,33.53-96.34,36.48-10.11,.32-20.26,.49-30.33-.55-23.05-2.81-45.86-8.98-66.66-19.43-5.11-3.98-10.69-7.29-15.84-11.2-13.88-9.75-26.65-21.58-35.69-36.02,0,0-15.93-22.06-18.35-25.91-1.2-2.49-5.07-2.29-6.27,.1-1.71,3.42-1.66,7.4-1.2,11.11,.54,6.61,.26,9.76,.26,18.83,0,1.62-.08,1.44,.01,3.2-3.38-3.5-5.72-7.82-8-12.07-15.16-29.21-24.63-61.54-26.47-94.45-.69-16.5-.39-33.06,1.85-49.44,3.09-20.68,8.98-40.96,17.73-59.96,3.66-8.53,8.41-16.52,12.24-24.97Z"/>
  <path class="y" d="M80.75,139.6c.4-.1,1.2-.32,1.61-.43-3.83,8.45-8.58,16.44-12.24,24.97-8.75,19-14.91,41.32-18,62-1.91,5.19-2.26,6.04-5.76,13.38-1.22,2.09-3.77,2.92-5.88,3.87-1.06-1.54-3.5-4.04-3.26-6.09,2.32-16.44,7.38-35.01,13.88-50.26,7.96-16.9,17.78-33,29.65-47.44Z"/>
  <path class="ad" d="M252.39,174.31c6.76-.56,10.69-7.6,17.27-8.22,2.58,6.04,1.78,12.76,2.95,19.1-1.19,5.33-5.7,8.97-10.47,11.07-2.84-1.24-5.71-2.91-8.89-2.86-2.07-.04-3.18,1.92-4.54,3.13-2.43,.94-4.97,1.57-7.51,2.11-.52-1.5-1.03-3-1.53-4.5-5.07-.38-9.96,1.28-14.7,2.85-.18-3.71,2.56-6.55,5.09-8.87,6.61-5.86,14.94-9.14,22.33-13.81Z"/>
  <path class="c" d="M253.25,193.4c3.18-.05,6.05,1.62,8.89,2.86-.36,3.25-.26,6.54,.53,9.72-4.54-.26-9.05-.93-13.59-1.11,1.59-2,4.35-3.7,4.06-6.59-1.48-.6-2.95-1.19-4.43-1.75,1.36-1.21,2.47-3.17,4.54-3.13Z"/>
  <path class="ac" d="M224.97,196.99c4.74-1.57,9.63-3.23,14.7-2.85,.5,1.5,1.01,3,1.53,4.5,2.54-.54,5.08-1.17,7.51-2.11,1.48,.56,2.95,1.15,4.43,1.75,.29,2.89-2.47,4.59-4.06,6.59,4.54,.18,9.05,.85,13.59,1.11,10.89-2.15,21.97-5.78,33.17-3.78,.01,.66,.03,1.97,.04,2.62-7.78,6.41-17.75,9.37-26.05,15.01-2.38,1.67-4.92,3.38-6.19,6.09,5,3.91,11.25,5.61,16.67,8.78,.81,.49,1.4,1.18,1.76,2.08-3.43,.71-6.91,1.07-10.41,1.16-7.44-1.45-15.05-1.66-22.59-.91,1.21-3.22,1.85-7.1,.15-10.25-2.49-3.4-7.06-4.52-11.07-4.51-2.11-.13-3.08,2.05-4.45,3.25-2.83,1.39-5.9,2.15-8.95,2.87-2.49,.29-4.47,1.84-6.23,3.51-2.47,2.04-5.64,2.95-8.59,4.07-5.68,1.79-11.65,3.79-17.68,2.79-2.61-2.15-2.7-6.36,.19-8.32,7.32-5.98,13.66-13.01,20.31-19.71,4.28-4.39,7.65-9.63,12.22-13.74Z"/>
  <path class="b" d="M388.83,193.99c.75,3.72,.69,3.85,1.65,8.01,1.56,10.45,3.38,18.44,3.6,29.02,.09,6.53-1.26,13.08-4.01,19.01-2.52,.5-5.08,1.23-7.01,3.02-6.82,5.9-13.75,12.15-21.48,16.84,3.53-4.17,8.61-7,12.25-11.07,9.45-10.12,13.92-23.88,15.62-37.39,1.24-9.13,0-18.32-.62-27.44Z"/>
  <path class="k" d="M46.36,239.52c3.09-6.89,5.06-11.52,5.76-13.38-2.24,16.38-2.27,30.9-1.58,47.4,1.84,32.91,11.31,65.24,26.47,94.45,2.28,4.25,4.62,8.57,8,12.07q.01,.54,.06,3.2,.42,5.41,.67,11.59c-1.31-.03-2.97,.56-4-.54-3.16-2.99-5.14-6.94-7.57-10.49-6.05-8.92-11.32-18.37-15.91-28.12-13.36-25.49-20.53-54.01-22.22-82.68,.04-11.45,.06-24.15,1.18-35.72,.57,2.59,2.2,4.31,3.26,6.09,2.11-.95,3.09-1.01,5.88-3.87Z"/>
  <path class="g" d="M233.7,225.52c1.37-1.2,2.34-3.38,4.45-3.25,4.01-.01,8.58,1.11,11.07,4.51,1.7,3.15,1.06,7.03-.15,10.25-.62,1.5-1.2,3.02-1.61,4.6-2.53,1.46-4.95,3.16-7.68,4.24-2.37,.55-3.36-2.27-4.82-3.6,.43-.18,1.29-.53,1.72-.71,.12-1.11,.22-2.22,.29-3.33-4.33-3.01-9.92-2.27-14.89-2.13,.28,1.67,.58,3.35,.91,5.02-.77-.04-2.32-.12-3.1-.16l.32-2.76c.8-2.34-1.04-4.2-1.69-6.3,1.76-1.67,3.74-3.22,6.23-3.51,4,3.88,10.31,2.25,15.37,2.56,0-.72,0-2.15-.01-2.86-1.78-1.59-4.19-1.98-6.41-2.57Z"/>
  <path class="ab" d="M224.75,228.39c3.05-.72,6.12-1.48,8.95-2.87,2.22,.59,4.63,.98,6.41,2.57,.01,.71,.01,2.14,.01,2.86-5.06-.31-11.37,1.32-15.37-2.56Z"/>
  <path class="m" d="M222.08,236.1c4.97-.14,10.56-.88,14.89,2.13-.07,1.11-.17,2.22-.29,3.33-.43,.18-1.29,.53-1.72,.71-3.98-.49-7.97-.87-11.97-1.15-.33-1.67-.63-3.35-.91-5.02Z"/>
  <path class="d" d="M249.07,237.03c7.54-.75,15.15-.54,22.59,.91-.06,4.49,3.66,8.27,3.1,12.85-4.64,.95-8.58-1.83-12.41-3.11-5.06-1.78-10.07-3.69-14.89-6.05,.41-1.58,.99-3.1,1.61-4.6Z"/>
  <path class="o" d="M207.76,239.85c4.07-.98,8.27-1.46,12.45-1.65l-.32,2.76c-4.28,.74-8.68,1.99-11.9,5.07-7.48,7.42-18.51,9.53-26.31,16.5,20.06-3.35,40.66-1.53,60.53,2.29,13.13,3.29,27.74,5.35,37.91,15.13,1.89,5.12,3.67,11.48,9.3,13.64,6.03,2.52,12.12,4.99,18.49,6.53,9.93,2.5,19.99,4.92,30.29,5.07-3.03,2.31-6.23,4.77-10.23,4.79-5.94,.3-12.39,2.56-17.96-.47-4.47-2.57-9.78-1.96-14.65-2.96-4.5-2.28-4.91-7.75-7.48-11.54-3.28,1.5-6.29,5.34-10.2,4.24-4.58-2.7-5.21-8.65-8.39-12.53-3.68-3.97-8.57-6.64-13.65-8.37-10.06-3.43-19.86-7.83-30.39-9.65-6.99-1.53-14.16-1.7-21.27-2.34-8.2-.45-16.5-.5-24.59,1.1-3.71,.73-7.83,1.23-11.25-.79,.05-.56,.14-1.7,.18-2.27,7.15-4.1,15.25-6.3,22.15-10.86,3.23-2.17,6.67-4.03,9.81-6.32,2.85-2.1,3.82-6.39,7.48-7.37Z"/>
  <path class="t" d="M207.99,246.03c3.22-3.08,7.62-4.33,11.9-5.07,.78,.04,2.33,.12,3.1,.16,4,.28,7.99,.66,11.97,1.15,1.46,1.33,2.45,4.15,4.82,3.6,2.73-1.08,5.15-2.78,7.68-4.24,4.82,2.36,9.83,4.27,14.89,6.05,3.83,1.28,7.51,3.79,11.72,3.25l.69-.14c-1,1.06-3.17,1.96-2.23,3.73,2.69,8.42,6.52,16.55,7.59,25.43-10.17-9.78-24.78-11.84-37.91-15.13-19.87-3.82-40.47-5.64-60.53-2.29,7.8-6.97,18.83-9.08,26.31-16.5Z"/>
  <path class="q" d="M427.25,263.62c2.12,5,4.75,9.82,5.98,15.15,1.83,6.34,1.65,12.98,2.43,19.48,.72,5.89-.36,11.78-.91,17.64-.82,7.28-3.77,14.2-4.23,21.52,2.55,1.29,5.91,2.01,7.22,4.86,1.17,3.55,1.08,8.87,1.76,12.54-.72,1.17-1.39,2.11-2.57,4.13-6.24,10.46-13.67,20.16-21.67,29.31-5.88,6.12-11.94,12.07-18,18.01-17.43,15.63-37,28.89-58.24,38.77-27.88,12.48-58.62,17.9-89.07,17.7-5-.47-10.01-.66-15.02-.85-25.45-2.39-50.23-10.24-72.95-21.84-23.59-11.76-45.83-26.8-63.61-46.42-4.28-5.08-8.25-8.51-13.36-13.56-.08-7.71,.27-15.42-.27-22.03,5.61,9.5,13.61,17.17,21.5,24.74,16.68,14.99,35.36,27.96,55.85,37.18,20.8,10.45,43.61,16.62,66.66,19.43,10.07,1.04,20.22,.87,30.33,.55,34.67-2.95,68.3-15.92,96.34-36.48,14.81-10.33,27.41-23.79,36.88-39.16,11.19-17.64,18.72-37.28,24.78-57.19,4.65-14.18,6.51-29.05,10.17-43.48Z"/>
  <path class="u" d="M321.44,274.48c3.55-1.59,6.26-4.63,9.98-5.9-4.3,5.95-10.8,10.33-13.38,17.45-.71,.62-1.43,1.23-2.16,1.82-1.9,.18-3.8,.31-5.69,.52,.26-4.18,1.28-8.26,2.85-12.14,2.85-.15,5.81-.41,8.4-1.75Z"/>
  <path class="ae" d="M347.11,277.23c4.79-2.24,9.58-5.3,14.47-7.34-3.74,3.66-9.03,5.73-13.62,8.07-10.09,4.92-20.87,8.71-32.08,9.89,.73-.59,1.45-1.2,2.16-1.82,10.21-.7,19.92-4.41,29.07-8.8Z"/>
  <path class="v" d="M301.85,274.38c3.59,1.27,7.39,1.76,11.19,1.85-1.57,3.88-2.59,7.96-2.85,12.14-6.72,1.05-13.57,.91-20.34,.48,2.19-1.09,4.75-1.02,6.95-2.05,4.09-2.65,4.98-7.91,5.05-12.42Z"/>
  <path class="h" d="M320.87,321.78c5.48-.62,10.72-2.67,16.27-2.92-.05,2.62-2.89,3.42-4.75,4.57-6.44,3.17-13.03,6.72-20.34,7.13,.14-1.19,.27-2.38,.38-3.57,.08-1.28,.13-2.55,.17-3.82,2.63-1.02,5.5-1.01,8.27-1.39Z"/>
  <path class="e" d="M110.56,372.73c9.04,14.44,21.81,26.27,35.69,36.02,5.15,3.91,10.73,7.22,15.84,11.2-20.49-9.22-39.17-22.19-55.85-37.18-7.89-7.57-15.89-15.24-21.5-24.74-.46-3.71-.51-7.69,1.2-11.11,1.2-2.39,5.07-2.59,6.27-.1"/>
  <path class="s" d="M330.32,378.34c1.82-1.36,4.04-1.09,6.08-.47-8.21,5.56-17.02,10.12-25.84,14.6-17.92,8.83-37.43,13.97-57.12,16.98-2.89,.47-5.82,.6-8.75,.57,8.08-3.98,16.69-7.04,24.14-12.2,5.57-3.93,9.5-9.59,14.51-14.13-1.86,5.14-3.27,8.2-1.08,12.09,6.07,1.14,11.81-1.79,17.64-2.94,11.12-2.46,20.88-8.56,30.42-14.5Z"/>
</svg>